HIERARCHY
ROOT SpineBase
{
  OFFSET 0.000000 0.000000 0.000000
  CHANNELS 6 Xposition Yposition Zposition Zrotation Xrotation Yrotation
  JOINT SpineMid
  {
    OFFSET 0.000000 31.371040 0.000000
    CHANNELS 3 Zrotation Xrotation Yrotation
    JOINT SpineShoulder
    {
      OFFSET 0.189196 23.326019 -0.734762
      CHANNELS 3 Zrotation Xrotation Yrotation
      JOINT Neck
      {
        OFFSET 0.128019 7.727148 -0.548725
        CHANNELS 3 Zrotation Xrotation Yrotation
        JOINT Head
        {
          OFFSET 4.700141 12.774982 4.243035
          CHANNELS 3 Zrotation Xrotation Yrotation
          End Site
          {
            OFFSET 0 0 0
          }
        }
      }
      JOINT ShoulderLeft
      {
        OFFSET -9.800352 -3.853061 -11.282015
        CHANNELS 3 Zrotation Xrotation Yrotation
        JOINT ElbowLeft
        {
          OFFSET -8.043549 -22.855510 -5.472125
          CHANNELS 3 Zrotation Xrotation Yrotation
          JOINT WristLeft
          {
            OFFSET 12.820693 -16.566444 -4.129772
            CHANNELS 3 Zrotation Xrotation Yrotation
            JOINT HandLeft
            {
              OFFSET 6.423228 -5.179621 2.919923
              CHANNELS 3 Zrotation Xrotation Yrotation
              JOINT HandTipLeft
              {
                OFFSET 7.760731 -3.782720 -3.142608
                CHANNELS 3 Zrotation Xrotation Yrotation
                End Site
                {
                  OFFSET 0 0 0
                }
              }
              JOINT ThumbLeft
              {
                OFFSET -4.635982 -5.115383 -0.269080
                CHANNELS 3 Zrotation Xrotation Yrotation
                End Site
                {
                  OFFSET 0 0 0
                }
              }
            }
          }
        }
      }
      JOINT ShoulderRight
      {
        OFFSET 13.042312 -5.464774 12.018601
        CHANNELS 3 Zrotation Xrotation Yrotation
        JOINT ElbowRight
        {
          OFFSET 3.747059 -25.248653 4.720240
          CHANNELS 3 Zrotation Xrotation Yrotation
          JOINT WristRight
          {
            OFFSET 0.091231 -17.220476 -18.057890
            CHANNELS 3 Zrotation Xrotation Yrotation
            JOINT HandRight
            {
              OFFSET -2.579462 -1.562946 -6.080058
              CHANNELS 3 Zrotation Xrotation Yrotation
              JOINT HandTipRight
              {
                OFFSET 4.311605 -4.053925 -5.076621
                CHANNELS 3 Zrotation Xrotation Yrotation
                End Site
                {
                  OFFSET 0 0 0
                }
              }
              JOINT ThumbRight
              {
                OFFSET -3.987224 2.713668 -7.706075
                CHANNELS 3 Zrotation Xrotation Yrotation
                End Site
                {
                  OFFSET 0 0 0
                }
              }
            }
          }
        }
      }
    }
  }
  JOINT HipLeft
  {
    OFFSET -4.345938 1.950949 -7.513124
    CHANNELS 3 Zrotation Xrotation Yrotation
    JOINT KneeLeft
    {
      OFFSET -2.652351 -35.906996 -13.138054
      CHANNELS 3 Zrotation Xrotation Yrotation
      JOINT AnkleLeft
      {
        OFFSET -7.962481 -41.597847 6.815328
        CHANNELS 3 Zrotation Xrotation Yrotation
        JOINT FootLeft
        {
          OFFSET 0.064922 -7.877891 -6.782374
          CHANNELS 3 Zrotation Xrotation Yrotation
          End Site
          {
            OFFSET 0 0 0
          }
        }
      }
    }
  }
  JOINT HipRight
  {
    OFFSET 5.034345 -0.204730 0.486604
    CHANNELS 3 Zrotation Xrotation Yrotation
    JOINT KneeRight
    {
      OFFSET 0.642246 -38.626040 1.699385
      CHANNELS 3 Zrotation Xrotation Yrotation
      JOINT AnkleRight
      {
        OFFSET -8.529292 -37.027121 7.952829
        CHANNELS 3 Zrotation Xrotation Yrotation
        JOINT FootRight
        {
          OFFSET 4.399456 -7.445250 -5.516896
          CHANNELS 3 Zrotation Xrotation Yrotation
          End Site
          {
            OFFSET 0 0 0
          }
        }
      }
    }
  }
}
MOTION
Frames: 13
Frame Time: 0.033333
-28.590725 90.289029 344.412843 3.986127 1.645882 -50.576631 0.124080 0.116009 50.640213 0.739610 -0.345436 0.234431 -11.718974 -4.110965 2.587443 0.000000 0.000000 0.000000 -74.435779 71.731802 31.670183 158.312701 17.745917 38.218349 -25.232956 -21.160799 33.159508 -2.474864 15.443385 -49.708208 0.000000 0.000000 0.000000 0.000000 0.000000 0.000000 87.745986 -9.974857 27.314499 160.915750 30.548890 121.541139 1.045451 -41.823428 -18.808399 -3.075962 13.240087 56.121138 0.000000 0.000000 0.000000 0.000000 0.000000 0.000000 8.263850 -20.043479 56.411416 9.655245 17.877526 -5.604874 4.279957 -2.812772 -4.795287 0.000000 0.000000 0.000000 -2.124497 -6.904516 50.254337 7.764470 -3.104790 2.268859 -14.382773 -1.725156 1.737985 0.000000 0.000000 0.000000
-28.584661 90.635153 344.348311 3.832806 1.642747 -50.964798 0.209554 0.171832 51.031454 0.494336 -0.292770 0.207504 -11.327750 -3.382978 2.351734 0.000000 0.000000 0.000000 -75.190173 70.296978 32.135301 162.047646 12.474457 38.801392 -27.832773 -18.668196 32.716949 -0.793555 14.444473 -49.648024 0.000000 0.000000 0.000000 0.000000 0.000000 0.000000 89.610589 -12.651362 29.899155 163.716041 24.924126 120.669593 1.559826 -42.088525 -17.465008 -0.561857 13.067452 50.884157 0.000000 0.000000 0.000000 0.000000 0.000000 0.000000 8.777359 -19.864316 56.821091 9.391899 18.027776 -5.524747 4.070788 -3.768238 -4.552065 0.000000 0.000000 0.000000 -2.073637 -6.726230 50.647650 7.812830 -3.150793 2.272158 -15.920832 -2.598572 2.393784 0.000000 0.000000 0.000000
-28.510743 90.872096 344.379409 3.771896 1.513843 -51.077194 0.148850 0.183568 51.144319 0.398201 -0.279137 0.194892 -10.831223 -2.653626 2.078198 0.000000 0.000000 0.000000 -76.041446 69.020967 32.651121 165.509279 7.887257 39.369136 -31.111424 -15.412924 33.388242 3.003101 13.802220 -50.107031 0.000000 0.000000 0.000000 0.000000 0.000000 0.000000 91.470802 -15.520830 32.678889 166.827354 19.045820 120.223244 2.904652 -43.880565 -16.723931 -0.166535 14.286859 47.387568 0.000000 0.000000 0.000000 0.000000 0.000000 0.000000 8.649747 -19.619234 56.868487 9.169326 17.823685 -5.438412 4.002461 -5.073219 -4.350958 0.000000 0.000000 0.000000 -2.285213 -6.567234 50.751668 7.894073 -3.279816 2.285373 -17.285224 -3.404969 2.955297 0.000000 0.000000 0.000000
-28.406666 91.025024 344.423222 3.788438 1.395671 -51.013405 0.128865 0.167403 51.084177 0.333634 -0.285369 0.189875 -10.522790 -1.891614 1.829838 0.000000 0.000000 0.000000 -76.838769 68.041596 33.133987 167.567304 4.510511 40.088265 -32.153446 -13.288501 33.668061 7.003602 15.040927 -50.275922 0.000000 0.000000 0.000000 0.000000 0.000000 0.000000 92.871006 -17.754638 34.851190 169.749991 14.674061 119.930614 4.693538 -46.414554 -16.691696 4.141958 20.742728 44.291962 0.000000 0.000000 0.000000 0.000000 0.000000 0.000000 8.316180 -19.435181 56.720067 8.974743 17.497559 -5.348516 4.081576 -5.808161 -4.282479 0.000000 0.000000 0.000000 -2.562016 -6.521553 50.671036 8.004455 -3.420252 2.305355 -18.033087 -3.842035 3.254801 0.000000 0.000000 0.000000
-28.304226 91.022445 344.463623 3.839023 1.277472 -50.951947 0.078238 0.096548 51.025022 0.234967 -0.287513 0.180760 -9.843939 -1.436983 1.588818 0.000000 0.000000 0.000000 -78.308549 67.495972 34.327413 168.757240 1.644443 41.394691 -31.004814 -10.524770 33.454454 10.940532 17.687762 -50.167155 0.000000 0.000000 0.000000 0.000000 0.000000 0.000000 94.370686 -19.378346 36.658881 171.862021 11.579924 119.775068 7.254828 -49.676439 -17.702258 3.975320 25.537494 43.793837 0.000000 0.000000 0.000000 0.000000 0.000000 0.000000 7.944425 -19.315453 56.595252 8.860526 17.206777 -5.297141 4.088516 -5.778688 -4.173033 0.000000 0.000000 0.000000 -2.796831 -6.544408 50.595357 8.074138 -3.502070 2.314161 -18.087906 -3.727740 3.411409 0.000000 0.000000 0.000000
-28.176071 91.086263 344.483225 3.939432 1.202771 -51.248489 0.054890 0.044085 51.325067 0.180176 -0.273531 0.177873 -9.519050 -1.264164 1.471868 0.000000 0.000000 0.000000 -80.589946 66.925179 36.015826 169.862443 -1.014816 42.807758 -29.199147 -7.508421 32.965196 13.943611 20.329091 -49.788260 0.000000 0.000000 0.000000 0.000000 0.000000 0.000000 94.583838 -20.374442 37.427990 175.257430 9.535686 118.953806 11.722205 -52.776664 -19.438803 1.074130 30.697935 46.294441 0.000000 0.000000 0.000000 0.000000 0.000000 0.000000 7.802967 -19.290968 56.895695 8.775579 17.079389 -5.284381 4.185346 -4.988031 -4.132603 0.000000 0.000000 0.000000 -3.043991 -6.608508 50.871843 8.140709 -3.692386 2.339111 -17.266478 -3.638482 2.763850 0.000000 0.000000 0.000000
-28.045320 91.185509 344.456960 4.056102 1.223271 -51.495781 0.093540 -0.022346 51.575937 0.136333 -0.226894 0.175795 -9.328812 -1.379583 1.436017 0.000000 0.000000 0.000000 -82.005206 66.473801 36.956954 170.695721 -4.007499 44.551989 -26.916115 -2.730909 32.842684 16.921640 21.073644 -50.913099 0.000000 0.000000 0.000000 0.000000 0.000000 0.000000 91.915807 -21.491540 36.732414 178.591537 9.935717 118.845506 13.675940 -57.265428 -21.873372 -2.690501 35.166707 49.444375 0.000000 0.000000 0.000000 0.000000 0.000000 0.000000 7.836813 -19.401854 57.186423 8.718380 17.089138 -5.290590 3.988187 -5.277397 -3.877846 0.000000 0.000000 0.000000 -3.202986 -6.777694 51.095328 8.217383 -3.837101 2.360162 -16.675146 -3.315503 2.498187 0.000000 0.000000 0.000000
-27.926617 91.307845 344.387369 4.134473 1.325814 -51.667161 0.107091 -0.121209 51.744803 0.074735 -0.162829 0.167416 -8.665723 -2.052163 1.433546 0.000000 0.000000 0.000000 -82.598344 66.208372 37.323360 170.841520 -6.655545 46.390165 -23.308888 1.760121 31.962084 16.970878 23.208963 -49.866275 0.000000 0.000000 0.000000 0.000000 0.000000 0.000000 90.148904 -22.377597 36.405588 -178.970952 10.690170 118.594152 15.121544 -61.047466 -24.019710 -7.467806 36.919832 52.443495 0.000000 0.000000 0.000000 0.000000 0.000000 0.000000 8.057932 -19.585291 57.427788 8.627135 17.214179 -5.297703 3.934693 -5.989770 -3.736134 0.000000 0.000000 0.000000 -3.257537 -6.984238 51.242974 8.290955 -3.951515 2.377525 -15.764419 -2.808440 2.101108 0.000000 0.000000 0.000000
-27.836608 91.427514 344.280126 4.182573 1.512635 -51.770360 0.128856 -0.188443 51.841587 0.062125 -0.079413 0.161291 -8.168454 -2.925680 1.487440 0.000000 0.000000 0.000000 -81.792748 65.992471 36.486992 170.633625 -9.232161 48.117747 -19.616543 5.554045 30.742302 14.756966 22.711404 -49.817267 0.000000 0.000000 0.000000 0.000000 0.000000 0.000000 87.907779 -23.159641 35.852259 -177.212531 12.152412 118.637858 12.983807 -64.772502 -25.453537 -9.153731 40.228129 53.377798 0.000000 0.000000 0.000000 0.000000 0.000000 0.000000 8.463727 -19.849894 57.631859 8.587481 17.513421 -5.332454 3.810760 -6.364493 -3.586182 0.000000 0.000000 0.000000 -3.188319 -7.233388 51.324829 8.371516 -3.998180 2.389537 -14.216078 -1.944396 1.418634 0.000000 0.000000 0.000000
-27.787509 91.532852 344.140265 4.199849 1.753068 -51.776802 0.160581 -0.223540 51.839281 0.092597 0.004180 0.158267 -7.821106 -3.893978 1.581650 0.000000 0.000000 0.000000 -80.669611 65.957293 35.388788 170.263134 -10.967577 49.412070 -16.551486 7.855584 29.447322 15.068636 24.501176 -49.641555 0.000000 0.000000 0.000000 0.000000 0.000000 0.000000 84.965894 -23.381619 34.622678 -175.088515 13.728043 118.360596 12.464115 -66.831108 -26.688278 -11.776862 40.231505 55.133418 0.000000 0.000000 0.000000 0.000000 0.000000 0.000000 8.995420 -20.168879 57.760799 8.560390 17.865408 -5.365903 3.477106 -6.904340 -3.308643 0.000000 0.000000 0.000000 -3.014242 -7.498111 51.315353 8.451763 -3.970012 2.395142 -13.625088 -1.791715 1.009500 0.000000 0.000000 0.000000
-27.787975 91.613511 343.976632 4.158461 2.016563 -51.802779 0.201719 -0.229241 51.855312 0.155951 0.067124 0.157798 -7.515299 -4.776542 1.659863 0.000000 0.000000 0.000000 -79.037065 65.922636 33.885788 169.771910 -11.856208 50.038021 -14.041595 9.350650 28.491921 17.437721 26.069818 -51.150359 0.000000 0.000000 0.000000 0.000000 0.000000 0.000000 80.921990 -23.165718 32.581388 -173.159305 15.979874 118.257448 10.954866 -69.023608 -28.181583 -15.225560 38.798560 57.954131 0.000000 0.000000 0.000000 0.000000 0.000000 0.000000 9.696929 -20.468015 57.926093 8.487596 18.308604 -5.389255 3.433509 -7.225032 -3.271436 0.000000 0.000000 0.000000 -2.743422 -7.708117 51.335799 8.505559 -3.897194 2.393673 -13.129292 -1.419989 0.846556 0.000000 0.000000 0.000000
-27.838808 91.653882 343.819984 4.043962 2.272523 -51.731534 0.248250 -0.210770 51.774317 0.242137 0.083737 0.160064 -7.142473 -5.518372 1.706837 0.000000 0.000000 0.000000 -77.529689 65.894033 32.538216 169.554446 -12.191425 50.206005 -13.563109 9.882732 28.404105 21.952411 26.918313 -53.575836 0.000000 0.000000 0.000000 0.000000 0.000000 0.000000 76.347656 -23.032641 30.345733 -171.268036 18.266522 118.609638 7.140682 -71.562774 -30.348345 -14.258571 39.054550 56.053674 0.000000 0.000000 0.000000 0.000000 0.000000 0.000000 10.330959 -20.608151 57.925904 8.327135 18.692347 -5.367368 3.559613 -7.251898 -3.348236 0.000000 0.000000 0.000000 -2.406999 -7.833063 51.270643 8.550489 -3.759974 2.383706 -12.636598 -1.386459 0.443680 0.000000 0.000000 0.000000
-27.828362 91.651515 343.793297 4.005590 2.338858 -51.552259 0.205929 -0.148235 51.589554 0.311491 0.091397 0.164359 -6.862278 -6.155954 1.776858 0.000000 0.000000 0.000000 -76.832065 65.994328 31.892714 169.408347 -12.070112 50.206983 -12.114288 10.277232 27.887306 24.240225 26.653802 -56.183357 0.000000 0.000000 0.000000 0.000000 0.000000 0.000000 71.978866 -22.334371 27.956760 -169.264398 20.509969 118.495819 4.351108 -72.949172 -32.131916 -14.116501 38.560332 55.595394 0.000000 0.000000 0.000000 0.000000 0.000000 0.000000 10.375649 -20.660755 57.748399 8.307486 18.744248 -5.369475 3.783841 -6.996364 -3.517189 0.000000 0.000000 0.000000 -2.388533 -7.887639 51.083852 8.644246 -3.723581 2.385630 -12.091857 -1.154534 0.145170 0.000000 0.000000 0.000000
